<svg xmlns="http://www.w3.org/2000/svg" viewBox="0 0 920.71 622.63">
  <defs>
    <style>
      .cls-1 {
        fill: #e7effd;
      }

      .cls-2 {
        fill: #3f3d56;
      }

      .cls-3 {
        opacity: 0.4;
      }

      .cls-4 {
        fill: #6c63ff;
      }

      .cls-5 {
        fill: #489bbb;
      }

      .cls-6 {
        fill: #51aed2;
      }

      .cls-7 {
        opacity: 0.1;
      }

      .cls-8 {
        fill: #5bc3eb;
      }

      .cls-9 {
        fill: #d4dfec;
      }

      .cls-10 {
        fill: #183642;
      }

      .cls-11 {
        fill: #fbbebe;
      }

      .cls-12 {
        fill: #125e8a;
      }

      .cls-13 {
        fill: #fff;
      }
    </style>
  </defs>
  <g id="first_page_image" transform="translate(-500 -434.71)">
    <circle id="Ellipse_11" data-name="Ellipse 11" class="cls-1" cx="1.34" cy="1.34" r="1.34" transform="translate(634.032 505.501)"/>
    <path id="Path_245" data-name="Path 245" class="cls-1" d="M336.43,229.4h-2.047V227.35h-.366V229.4H331.97v.366h2.047v2.047h.366v-2.047h2.047Z" transform="translate(445.303 318.466)"/>
    <g id="Group_112" data-name="Group 112" transform="translate(-316.269 133)">
      <g id="Group_111" data-name="Group 111">
        <path id="Path_233" data-name="Path 233" class="cls-2" d="M968.125,612.734c0,36.921-203.236,172.88-457.056,172.88S57.45,640.726,57.45,603.805s199.8,48.088,453.619,48.088S968.125,575.779,968.125,612.734Z" transform="translate(768.854 138.726)"/>
        <path id="Path_236" data-name="Path 236" class="cls-2" d="M1049.109,122.5V447.91c-3.578,6.732-7.165,13.448-10.709,20.211V114.18Z" transform="translate(604.167 219.367)"/>
        <path id="Path_237" data-name="Path 237" class="cls-2" d="M951.3,215.761a.471.471,0,0,1,0,.108H101.165a79.227,79.227,0,0,1-.441-10.709H951.013a61.8,61.8,0,0,1,.283,10.6Z" transform="translate(756.593 167.093)"/>
        <circle id="Ellipse_12" data-name="Ellipse 12" class="cls-1" cx="1.34" cy="1.34" r="1.34" transform="translate(1283.936 350.787)"/>
        <circle id="Ellipse_14" data-name="Ellipse 14" class="cls-1" cx="1.34" cy="1.34" r="1.34" transform="translate(1217.908 349.34)"/>
        <circle id="Ellipse_15" data-name="Ellipse 15" class="cls-1" cx="1.34" cy="1.34" r="1.34" transform="translate(1386.552 353.359)"/>
        <rect id="Rectangle_11" data-name="Rectangle 11" class="cls-3" width="23.798" height="16.06" transform="translate(889.836 615.168)"/>
        <rect id="Rectangle_12" data-name="Rectangle 12" class="cls-3" width="23.798" height="16.06" transform="translate(927.913 615.168)"/>
        <rect id="Rectangle_13" data-name="Rectangle 13" class="cls-3" width="23.798" height="16.06" transform="translate(1365.132 582.158)"/>
        <rect id="Rectangle_14" data-name="Rectangle 14" class="cls-3" width="23.798" height="16.06" transform="translate(1429.379 582.158)"/>
        <rect id="Rectangle_15" data-name="Rectangle 15" class="cls-3" width="23.798" height="16.06" transform="translate(1498.378 582.158)"/>
        <rect id="Rectangle_16" data-name="Rectangle 16" class="cls-3" width="23.798" height="16.06" transform="translate(1365.132 631.236)"/>
        <rect id="Rectangle_17" data-name="Rectangle 17" class="cls-3" width="23.798" height="16.06" transform="translate(1429.379 631.236)"/>
        <rect id="Rectangle_18" data-name="Rectangle 18" class="cls-4" width="23.798" height="16.06" transform="translate(1498.378 631.236)"/>
        <rect id="Rectangle_19" data-name="Rectangle 19" class="cls-3" width="23.798" height="16.06" transform="translate(1365.132 680.306)"/>
        <rect id="Rectangle_20" data-name="Rectangle 20" class="cls-3" width="23.798" height="16.06" transform="translate(1429.379 680.306)"/>
        <rect id="Rectangle_21" data-name="Rectangle 21" class="cls-3" width="23.798" height="16.06" transform="translate(1498.378 680.306)"/>
        <rect id="Rectangle_22" data-name="Rectangle 22" class="cls-3" width="23.798" height="16.06" transform="translate(1365.132 729.384)"/>
        <rect id="Rectangle_23" data-name="Rectangle 23" class="cls-3" width="23.798" height="16.06" transform="translate(1429.379 729.384)"/>
        <rect id="Rectangle_24" data-name="Rectangle 24" class="cls-3" width="23.798" height="16.06" transform="translate(1498.378 729.384)"/>
        <rect id="Rectangle_25" data-name="Rectangle 25" class="cls-3" width="23.798" height="16.06" transform="translate(1365.132 778.462)"/>
        <rect id="Rectangle_26" data-name="Rectangle 26" class="cls-3" width="23.798" height="16.06" transform="translate(1429.379 778.462)"/>
        <rect id="Rectangle_27" data-name="Rectangle 27" class="cls-3" width="23.798" height="16.06" transform="translate(1498.378 778.462)"/>
        <path id="Path_240" data-name="Path 240" class="cls-3" d="M982.862,413a59.6,59.6,0,0,0-3.886,16.06H965.92V413Z" transform="translate(616.335 169.199)"/>
        <rect id="Rectangle_28" data-name="Rectangle 28" class="cls-4" width="23.798" height="16.06" transform="translate(1582.255 631.236)"/>
        <rect id="Rectangle_29" data-name="Rectangle 29" class="cls-3" width="23.798" height="16.06" transform="translate(1582.255 680.306)"/>
        <rect id="Rectangle_30" data-name="Rectangle 30" class="cls-3" width="23.798" height="16.06" transform="translate(1582.255 729.384)"/>
        <rect id="Rectangle_31" data-name="Rectangle 31" class="cls-3" width="23.798" height="16.06" transform="translate(1582.255 778.462)"/>
        <rect id="Rectangle_32" data-name="Rectangle 32" class="cls-3" width="23.798" height="16.06" transform="translate(1021.901 563.419)"/>
        <rect id="Rectangle_33" data-name="Rectangle 33" class="cls-4" width="23.798" height="16.06" transform="translate(1021.901 599.424)"/>
        <rect id="Rectangle_34" data-name="Rectangle 34" class="cls-3" width="23.798" height="16.06" transform="translate(1021.901 635.422)"/>
        <rect id="Rectangle_35" data-name="Rectangle 35" class="cls-3" width="23.798" height="16.06" transform="translate(1021.901 671.427)"/>
        <rect id="Rectangle_36" data-name="Rectangle 36" class="cls-3" width="23.798" height="16.06" transform="translate(1021.901 707.424)"/>
        <rect id="Rectangle_37" data-name="Rectangle 37" class="cls-3" width="23.798" height="16.06" transform="translate(1021.901 743.43)"/>
        <rect id="Rectangle_38" data-name="Rectangle 38" class="cls-3" width="23.798" height="16.06" transform="translate(1021.901 779.427)"/>
        <rect id="Rectangle_39" data-name="Rectangle 39" class="cls-3" width="23.798" height="16.06" transform="translate(889.836 657.14)"/>
        <rect id="Rectangle_40" data-name="Rectangle 40" class="cls-3" width="23.798" height="16.06" transform="translate(927.913 657.14)"/>
        <rect id="Rectangle_41" data-name="Rectangle 41" class="cls-3" width="23.798" height="16.06" transform="translate(889.836 699.112)"/>
        <rect id="Rectangle_42" data-name="Rectangle 42" class="cls-3" width="23.798" height="16.06" transform="translate(927.913 699.112)"/>
        <rect id="Rectangle_43" data-name="Rectangle 43" class="cls-3" width="23.798" height="16.06" transform="translate(889.836 741.083)"/>
        <rect id="Rectangle_44" data-name="Rectangle 44" class="cls-3" width="23.798" height="16.06" transform="translate(927.913 741.083)"/>
        <rect id="Rectangle_45" data-name="Rectangle 45" class="cls-3" width="118.976" height="14.354" transform="translate(1156.337 673.133)"/>
        <rect id="Rectangle_46" data-name="Rectangle 46" class="cls-3" width="118.976" height="14.354" transform="translate(1156.337 718.932)"/>
        <rect id="Rectangle_47" data-name="Rectangle 47" class="cls-3" width="118.976" height="14.354" transform="translate(1156.337 764.74)"/>
        <path id="Path_241" data-name="Path 241" class="cls-2" d="M251.3,76.419v502.6q-5.367-.657-10.7-1.44V75.92C244.17,75.987,247.731,76.17,251.3,76.419Z" transform="translate(738.106 225.79)"/>
        <path id="Path_242" data-name="Path 242" class="cls-2" d="M650.2,174.886v431.46l-10.7.125V173.58Q644.842,174.3,650.2,174.886Z" transform="translate(671.136 209.394)"/>
        <path id="Path_243" data-name="Path 243" class="cls-2" d="M954.434,556.839H45.39a67.584,67.584,0,0,1,1.856-10.709h894.59a88.1,88.1,0,0,1,12.6,10.709Z" transform="translate(770.878 146.849)"/>
        <path id="Path_244" data-name="Path 244" class="cls-2" d="M1038.4,503.06c3.487,1.781,7.073,3.512,10.709,5.226V646.766c-3.562.6-7.14,1.14-10.709,1.664Z" transform="translate(604.167 154.08)"/>
        <path id="Path_246" data-name="Path 246" class="cls-1" d="M847.71,178.267h-2.047V176.22h-.374v2.047H843.25v.366h2.039v2.047h.374v-2.047h2.047Z" transform="translate(391.467 243.05)"/>
        <path id="Path_247" data-name="Path 247" class="cls-1" d="M394.7,168.317h-2.047V166.27h-.374v2.047H390.24v.374h2.039v2.039h.374v-2.039H394.7Z" transform="translate(467.52 244.721)"/>
        <circle id="Ellipse_16" data-name="Ellipse 16" class="cls-1" cx="1.34" cy="1.34" r="1.34" transform="translate(1140.76 571.532)"/>
        <circle id="Ellipse_17" data-name="Ellipse 17" class="cls-1" cx="1.34" cy="1.34" r="1.34" transform="translate(1163.288 422.84)"/>
        <circle id="Ellipse_18" data-name="Ellipse 18" class="cls-1" cx="1.34" cy="1.34" r="1.34" transform="translate(1580.916 515.289)"/>
        <path id="Path_293" data-name="Path 293" d="M574.573,461.032a47.55,47.55,0,0,0-.358,7.581,37.946,37.946,0,0,1,.358-4.9c1.49-10.227,8.654-19.588,8.005-29.731C582,443.15,575.929,451.712,574.573,461.032Z" transform="translate(687.926 171.502)"/>
        <path id="Path_294" data-name="Path 294" class="cls-5" d="M871.89,637s-5.65,26.32,19.5,29.44l1.556-2.921S873.471,645.213,871.89,637Z" transform="translate(632.212 131.593)"/>
        <path id="Path_295" data-name="Path 295" class="cls-5" d="M902.539,660.675l-5.825,1.24-.582.125s-15.6-12.665-15.4-40.94a70.732,70.732,0,0,0,7.447,11.791C894.343,641.071,901.374,652,902.539,660.675Z" transform="translate(630.638 134.262)"/>
        <path id="Path_296" data-name="Path 296" class="cls-5" d="M906.515,661.426a3.686,3.686,0,0,1-3.145.408c-14.978-3.511-9.944-52.423-9.944-52.423.832.391,1.739,6.657,5.192,14.645C904.676,638.193,911.333,657.881,906.515,661.426Z" transform="translate(628.642 136.225)"/>
        <path id="Path_297" data-name="Path 297" class="cls-5" d="M944.149,637s.974,26.32-24.173,29.44l-1.556-2.921S942.593,645.213,944.149,637Z" transform="translate(624.31 131.593)"/>
        <path id="Path_298" data-name="Path 298" class="cls-5" d="M935.335,621.1c.183,28.292-20.087,40.94-20.087,40.94l-.583-.125-5.825-1.24c1.157-8.679,8.2-19.6,14.379-27.784A63.24,63.24,0,0,1,935.335,621.1Z" transform="translate(625.918 134.262)"/>
        <path id="Path_299" data-name="Path 299" class="cls-6" d="M913.843,658.868a9.3,9.3,0,0,1-3.328,2.563h0a6.4,6.4,0,0,1-1.223.408c-3.695.832-4.993-1.8-4.776-6.324.349-8.063,5.417-22.043,9.985-32.453,3.278-7.539,8.629-13.247,9.428-13.622C923.879,609.4,923.654,647.5,913.843,658.868Z" transform="translate(626.648 136.22)"/>
        <path id="Path_300" data-name="Path 300" class="cls-5" d="M909.036,588.77S892.269,648.233,906.7,657.2,912.739,594.037,909.036,588.77Z" transform="translate(627.261 139.69)"/>
        <path id="Path_301" data-name="Path 301" class="cls-7" d="M871.862,637s-5.357,26.32,18.485,29.44l1.475-2.921S873.361,645.213,871.862,637Z" transform="translate(633.333 131.593)"/>
        <path id="Path_302" data-name="Path 302" class="cls-7" d="M899.25,659.048l-4.946,1.189-.495.12s-13.25-12.144-13.08-39.257a69.6,69.6,0,0,0,6.324,11.306C892.29,640.25,898.261,650.726,899.25,659.048Z" transform="translate(633.927 135.946)"/>
        <path id="Path_303" data-name="Path 303" class="cls-7" d="M904.565,660.015a2.857,2.857,0,0,1-2.7.4c-12.878-3.416-8.549-51-8.549-51,.715.38,1.5,6.476,4.464,14.248C902.984,637.412,908.708,656.566,904.565,660.015Z" transform="translate(630.824 137.652)"/>
        <path id="Path_304" data-name="Path 304" class="cls-7" d="M944.154,644.5s-2.467,25.253-24.378,29.44l-1.356-3.919S942.8,655.518,944.154,644.5Z" transform="translate(624.31 124.095)"/>
        <path id="Path_305" data-name="Path 305" class="cls-7" d="M935.335,621.1c.183,27.129-20.087,39.257-20.087,39.257l-.583-.12-5.825-1.189c1.157-8.322,8.2-18.8,14.379-26.642A62.113,62.113,0,0,1,935.335,621.1Z" transform="translate(625.918 135.946)"/>
        <path id="Path_306" data-name="Path 306" class="cls-7" d="M913.843,658.868a9.3,9.3,0,0,1-3.328,2.563h0a6.4,6.4,0,0,1-1.223.408c-3.695.832-4.993-1.8-4.776-6.324.349-8.063,5.417-22.043,9.985-32.453,3.278-7.539,8.2-10.617,9-10.991C923.447,612.029,923.654,647.5,913.843,658.868Z" transform="translate(626.648 136.22)"/>
        <path id="Path_307" data-name="Path 307" class="cls-7" d="M909.036,588.77s-16.767,49.419-2.338,56.874S912.739,593.148,909.036,588.77Z" transform="translate(627.261 151.38)"/>
        <path id="Path_308" data-name="Path 308" class="cls-8" d="M871.971,637s-3.328,26.32,21.835,29.44l1.556-2.921S873.552,645.213,871.971,637Z" transform="translate(632.132 131.593)"/>
        <path id="Path_309" data-name="Path 309" class="cls-8" d="M904.876,660.675l-5.825,1.24-.591.125s-17.94-12.665-17.741-40.94c0,0,4.593,4.926,9.786,11.791C896.68,641.071,903.711,652,904.876,660.675Z" transform="translate(630.639 134.262)"/>
        <path id="Path_310" data-name="Path 310" class="cls-7" d="M906.851,663.054l-5.825,1.24c-5.55-4.868-7.747-17.574-8.546-29.024C898.654,643.45,905.686,654.375,906.851,663.054Z" transform="translate(628.665 131.884)"/>
        <path id="Path_311" data-name="Path 311" class="cls-8" d="M908.978,661.426a3.686,3.686,0,0,1-3.145.408c-15.02-3.511-12.282-52.423-12.282-52.423.832.391,4.077,6.657,7.489,14.645C907.139,638.193,913.8,657.881,908.978,661.426Z" transform="translate(628.518 136.225)"/>
        <path id="Path_312" data-name="Path 312" class="cls-8" d="M944.621,637s3.328,26.32-21.835,29.44l-1.556-2.921S943.065,645.213,944.621,637Z" transform="translate(623.838 131.593)"/>
        <path id="Path_313" data-name="Path 313" class="cls-8" d="M935.806,621.1c.183,28.292-17.749,40.94-17.749,40.94l-.582-.125-5.825-1.24c1.165-8.679,8.2-19.6,14.379-27.784C931.2,626.009,935.806,621.1,935.806,621.1Z" transform="translate(625.446 134.262)"/>
        <path id="Path_314" data-name="Path 314" class="cls-7" d="M926,635.27c-.749,10.684-2.7,22.467-7.447,27.934a9.571,9.571,0,0,1-1.082,1.09l-5.825-1.24C912.773,654.375,919.83,643.45,926,635.27Z" transform="translate(625.446 131.884)"/>
        <path id="Path_315" data-name="Path 315" class="cls-8" d="M916.652,658.868a9.3,9.3,0,0,1-3.328,2.563h0a6.479,6.479,0,0,1-1.232.408c-3.695.832-4.993-1.8-4.776-6.324.358-8.063,5.417-22.043,9.985-32.453,3.279-7.539,6.291-13.247,7.09-13.622C924.349,609.4,926.462,647.5,916.652,658.868Z" transform="translate(626.178 136.22)"/>
        <path id="Path_316" data-name="Path 316" class="cls-7" d="M910.358,664.38a4.161,4.161,0,0,1-2.372-.757c-7.065-4.4-7.206-20.919-5.525-36.613C908.519,641.148,915.176,660.836,910.358,664.38Z" transform="translate(627.138 133.27)"/>
        <path id="Path_317" data-name="Path 317" class="cls-7" d="M916.656,661.616c-.832,1.756-1.906,2.688-3.328,2.563h0a4.776,4.776,0,0,1-2.014-.757,10.719,10.719,0,0,1-3.994-5.159c.358-8.063,5.417-22.043,9.985-32.453C918.886,640.281,919.427,655.666,916.656,661.616Z" transform="translate(626.173 133.472)"/>
        <path id="Path_318" data-name="Path 318" class="cls-8" d="M909.4,588.77s-14.429,59.463,0,68.433S913.1,594.037,909.4,588.77Z" transform="translate(626.901 139.69)"/>
        <path id="Path_319" data-name="Path 319" class="cls-9" d="M886.735,591.66H826.69V601.6h9.161l.225,1.173,3.67,19.3h34.907l3.67-19.3.225-1.173h8.188Z" transform="translate(677.247 202.304)"/>
        <path id="Path_320" data-name="Path 320" class="cls-7" d="M886.705,591.66H826.66V601.6h9.162l.225,1.173,3.67,19.3h34.907l3.67-19.3.225-1.173h8.188Z" transform="translate(677.252 202.304)"/>
        <path id="Path_321" data-name="Path 321" class="cls-9" d="M883.83,598.69l-1.007,5.267-3.67,19.3H844.247l-3.67-19.3-1.007-5.267Z" transform="translate(675.084 201.124)"/>
        <path id="Path_322" data-name="Path 322" class="cls-7" d="M883.83,598.69l-1.007,5.267H840.577l-1.007-5.267Z" transform="translate(675.084 201.124)"/>
        <rect id="Rectangle_50" data-name="Rectangle 50" class="cls-9" width="60.045" height="9.944" transform="translate(1506.275 793.964)"/>
        <path id="Path_323" data-name="Path 323" class="cls-8" d="M319.5,589.655a15.353,15.353,0,0,0-2.03,3.828c-.125.333-.25.716-.374,1.082a2.955,2.955,0,0,0-.707-.241,9.827,9.827,0,0,0-3.179-.275c0-.416.042-.832.058-1.306.133-4.71-.424-11.259-4.909-8.488-4.3,2.679-1.232,7.123,1.548,9.985.241.25.474.474.707.7-2.5,1.822-3.012,6.008-3.437,10.393s-4.161,9.153-6.607,11.9c-.241.275-.474.524-.7.757a8.97,8.97,0,0,0-7.173-1.847l-.333-1.215c-2-7.214-6.149-19.713-11.442-22.467l.7-.882c2.247-2.946,4.776-7.314,1.04-8.429s-4.077,3.786-3.869,7.489a12.56,12.56,0,0,0,.108,1.306,5.517,5.517,0,0,0-3.919,1.906c-.175-.216-.366-.441-.574-.682-3.029-3.586-8.6-9.253-10.277-4.993-1.564,3.994,3.328,9.153,6.773,12.2l.216.183c-2.313,9.386,7.772,17.025,13.214,20.37.241.158.474.3.7.433-7.489,8.829-12.124,25.388-12.124,25.388l21.019,3.82s13.921-12.007,12.141-23.3h.141c13.9-2.788,17.067-17.616,14.9-26.42l.241-.1a15.81,15.81,0,0,0,6.441-4.868C331.656,590.487,323.493,584.371,319.5,589.655Z" transform="translate(734.206 140.661)"/>
        <path id="Path_324" data-name="Path 324" class="cls-7" d="M319.754,590.636c-.854,1.173-1.793,1.48-2.286,2.846-.125.333-.25.716-.374,1.082a2.955,2.955,0,0,0-.707-.241,9.827,9.827,0,0,0-3.179-.275c0-.416.042-.832.058-1.306.133-4.71-.424-11.259-4.909-8.488-4.3,2.679-1.232,7.123,1.548,9.985.241.25.474.474.707.7-2.5,1.822-3.012,6.008-3.437,10.393s-4.161,9.153-6.607,11.9c-.241.275-.474.524-.7.757a8.97,8.97,0,0,0-7.173-1.847l-.333-1.215c-2-7.214-6.149-19.713-11.442-22.467l.7-.882c2.247-2.946,4.776-7.314,1.04-8.429s-4.077,3.786-3.869,7.489a12.56,12.56,0,0,0,.108,1.306,5.517,5.517,0,0,0-3.919,1.906c-.175-.216-.366-.441-.574-.682-3.029-3.586-8.6-9.253-10.277-4.993-1.564,3.994,3.328,9.153,6.773,12.2l.216.183c-2.313,9.386,7.772,17.025,13.214,20.37.241.158.474.3.7.433-7.489,8.829-12.124,25.388-12.124,25.388l21.019,3.82s13.921-12.007,12.141-23.3h.141c13.9-2.788,17.067-17.616,14.9-26.42l.241-.1a15.81,15.81,0,0,0,6.441-4.868C331.656,590.487,323.748,585.352,319.754,590.636Z" transform="translate(734.206 140.661)"/>
        <path id="Path_325" data-name="Path 325" class="cls-8" d="M277.986,596.475l-2.455,7.19a39.646,39.646,0,0,1-3.087-2.5c-3.445-3.012-8.321-8.2-6.773-12.2,1.664-4.294,7.248,1.373,10.285,4.993C277.17,595.393,277.986,596.475,277.986,596.475Z" transform="translate(733.946 139.915)"/>
        <path id="Path_326" data-name="Path 326" class="cls-8" d="M286.171,591.644a35.526,35.526,0,0,1-2.388,2.813,36.821,36.821,0,0,1-.441-3.778c-.2-3.678.183-8.562,3.869-7.489S288.417,588.7,286.171,591.644Z" transform="translate(730.937 140.652)"/>
        <path id="Path_327" data-name="Path 327" class="cls-8" d="M323.369,592.9c-.083,2.363-.308,4.252-.308,4.252A31.221,31.221,0,0,1,320,594.411c-2.779-2.879-5.825-7.323-1.539-9.985C322.945,581.638,323.494,588.187,323.369,592.9Z" transform="translate(725.392 140.532)"/>
        <path id="Path_328" data-name="Path 328" class="cls-8" d="M339.892,596.8a15.809,15.809,0,0,1-6.441,4.868,17.4,17.4,0,0,1-2.164.782L328.4,598.39a29.131,29.131,0,0,1,1.2-3.944,15.087,15.087,0,0,1,2.03-3.828C335.623,585.309,343.777,591.425,339.892,596.8Z" transform="translate(723.365 139.723)"/>
        <path id="Path_329" data-name="Path 329" class="cls-7" d="M277.382,595.26c1.215,1.431,2.03,2.5,2.03,2.5l-2.455,7.19a39.646,39.646,0,0,1-3.087-2.5,14.079,14.079,0,0,1,2.763-6.316Q277.007,595.684,277.382,595.26Z" transform="translate(732.52 138.601)"/>
        <path id="Path_330" data-name="Path 330" class="cls-7" d="M286.179,593.185A35.542,35.542,0,0,1,283.791,596a36.811,36.811,0,0,1-.441-3.778A4.877,4.877,0,0,1,286.179,593.185Z" transform="translate(730.928 139.111)"/>
        <path id="Path_331" data-name="Path 331" class="cls-8" d="M296.628,621.954l-6.1,2.688a36.514,36.514,0,0,1-3.254-1.839c-6.416-3.944-19.313-13.871-10.668-25.579s15.86,9.286,18.7,19.555C296.17,619.849,296.628,621.954,296.628,621.954Z" transform="translate(732.546 138.851)"/>
        <path id="Path_332" data-name="Path 332" class="cls-7" d="M320.74,596.254a4.993,4.993,0,0,1,3.37-1.514c-.083,2.363-.308,4.252-.308,4.252a31.225,31.225,0,0,1-3.062-2.738Z" transform="translate(724.651 138.688)"/>
        <path id="Path_333" data-name="Path 333" class="cls-7" d="M333.451,602.853a17.4,17.4,0,0,1-2.164.782l-2.887-4.061a29.131,29.131,0,0,1,1.2-3.944C331.462,596.72,332.835,599.433,333.451,602.853Z" transform="translate(723.365 138.539)"/>
        <path id="Path_334" data-name="Path 334" class="cls-8" d="M313.784,629.476c-.333.067-.682.133-1.024.183-20.462,3.112-6.748-7.93-6.748-7.93s.924-.832,2.172-2.23c2.5-2.729,6.183-7.489,6.607-11.9.641-6.657,1.381-12.856,9.212-11.026C331.683,598.372,333.148,625.6,313.784,629.476Z" transform="translate(727.879 138.435)"/>
        <rect id="Rectangle_51" data-name="Rectangle 51" class="cls-9" width="39.093" height="10.277" transform="translate(1002.196 818.853)"/>
        <rect id="Rectangle_52" data-name="Rectangle 52" class="cls-9" width="51.075" height="35.872" transform="translate(995.981 785.443)"/>
        <rect id="Rectangle_53" data-name="Rectangle 53" class="cls-7" width="39.093" height="10.277" transform="translate(1002.196 818.853)"/>
        <rect id="Rectangle_54" data-name="Rectangle 54" class="cls-7" width="51.075" height="35.872" transform="translate(995.981 785.443)"/>
        <rect id="Rectangle_55" data-name="Rectangle 55" class="cls-9" width="39.093" height="10.277" transform="translate(1004.759 818.853)"/>
        <path id="Path_335" data-name="Path 335" class="cls-7" d="M298.04,621.42c.832,3.07,1.323,5.176,1.323,5.176l-6.1,2.688a36.514,36.514,0,0,1-3.254-1.839C292.4,624.4,295.094,622.127,298.04,621.42Z" transform="translate(729.81 134.209)"/>
        <path id="Path_336" data-name="Path 336" class="cls-7" d="M313.784,634.167c-.333.067-.682.133-1.024.183-20.462,3.112-6.748-7.93-6.748-7.93s.924-.832,2.172-2.23C312,627.244,313.568,630.689,313.784,634.167Z" transform="translate(727.879 133.744)"/>
        <path id="Path_337" data-name="Path 337" class="cls-8" d="M276.29,653.478s11.458-41.007,27.518-28.375-6.532,32.128-6.532,32.128Z" transform="translate(732.114 133.996)"/>
        <circle id="Ellipse_21" data-name="Ellipse 21" class="cls-7" cx="1.281" cy="1.281" r="1.281" transform="translate(1012.906 741.225)"/>
        <circle id="Ellipse_22" data-name="Ellipse 22" class="cls-7" cx="1.281" cy="1.281" r="1.281" transform="translate(1012.798 747.216)"/>
        <circle id="Ellipse_23" data-name="Ellipse 23" class="cls-7" cx="1.281" cy="1.281" r="1.281" transform="translate(1050.06 742.398)"/>
        <circle id="Ellipse_24" data-name="Ellipse 24" class="cls-7" cx="1.281" cy="1.281" r="1.281" transform="translate(1020.079 773.128)"/>
        <circle id="Ellipse_25" data-name="Ellipse 25" class="cls-7" cx="1.281" cy="1.281" r="1.281" transform="translate(1047.388 752.359)"/>
        <circle id="Ellipse_26" data-name="Ellipse 26" class="cls-7" cx="1.281" cy="1.281" r="1.281" transform="translate(1034.108 765.639)"/>
        <circle id="Ellipse_27" data-name="Ellipse 27" class="cls-7" cx="1.281" cy="1.281" r="1.281" transform="translate(1017.299 743.788)"/>
        <circle id="Ellipse_28" data-name="Ellipse 28" class="cls-7" cx="1.281" cy="1.281" r="1.281" transform="translate(1046.531 746.251)"/>
        <circle id="Ellipse_29" data-name="Ellipse 29" class="cls-7" cx="1.281" cy="1.281" r="1.281" transform="translate(1042.138 756.211)"/>
        <circle id="Ellipse_30" data-name="Ellipse 30" class="cls-7" cx="1.281" cy="1.281" r="1.281" transform="translate(1028.649 772.171)"/>
        <circle id="Ellipse_31" data-name="Ellipse 31" class="cls-7" cx="1.281" cy="1.281" r="1.281" transform="translate(1025.862 765.847)"/>
        <circle id="Ellipse_32" data-name="Ellipse 32" class="cls-7" cx="1.281" cy="1.281" r="1.281" transform="translate(1019.221 751.61)"/>
        <rect id="Rectangle_56" data-name="Rectangle 56" class="cls-7" width="39.093" height="3.753" transform="translate(1004.759 818.853)"/>
        <rect id="Rectangle_57" data-name="Rectangle 57" class="cls-9" width="51.075" height="35.872" transform="translate(998.552 785.443)"/>
        <circle id="Ellipse_33" data-name="Ellipse 33" class="cls-7" cx="1.281" cy="1.281" r="1.281" transform="translate(1030.363 777.954)"/>
        <circle id="Ellipse_34" data-name="Ellipse 34" class="cls-7" cx="1.281" cy="1.281" r="1.281" transform="translate(1022.65 779.56)"/>
        <g id="Group_110" data-name="Group 110" transform="translate(1111.401 483.192)">
          <g id="Group_109" data-name="Group 109" transform="translate(0)">
            <g id="Group_105" data-name="Group 105" transform="translate(0)">
              <g id="Group_58" data-name="Group 58" transform="translate(0)">
                <rect id="Rectangle_48" data-name="Rectangle 48" class="cls-10" width="188.948" height="65.729" rx="32.864" transform="translate(105.742 338.921)"/>
                <path id="Path_257" data-name="Path 257" class="cls-11" d="M419.72,530.81l5.2,8.329L444.4,546,457.79,521.59l-12.34-8.329-19.779-7.73-11.3,6.54Z" transform="translate(-345.424 -242.747)"/>
                <path id="Path_267" data-name="Path 267" class="cls-12" d="M466.43,447.67l-5.2,2.979-9.985,68.408s-5.3,5.059-3.645,8.321-.325,8.92-.325,8.92-8.954,3.869-6.965,6.249,1.082,6.84-.283,9.811-3.6,8.321,0,9.22.616,12.482.616,12.482,12.557-1.431,11.65,5.941c-.374,2.979,14.2,12.482,14.2,12.482s-16.559-30.039,20.537-25.879l3.187-16.934s3.187-9.536,0-12.482.716-17.1.716-17.1l.7-61.418Z" transform="translate(-386.94 -296.133)"/>
                <path id="Path_249" data-name="Path 249" class="cls-10" d="M464,663.758s-16.642-3.869-24.389-7.439-51.158-10.41-60.678,10.118,13.089,47.88,18.739,50.859,60.678-37.786,60.678-37.786l43.4,18.307,8.321-28.408Z" transform="translate(-376.623 -330.487)"/>
                <path id="Path_251" data-name="Path 251" class="cls-11" d="M581.851,714.66s-18.947,4.868-34.408,4.652-87.78,29.831-87.78,29.831-10.41,23.732,6.574,21.768,25.255-10.2,37.229-10.2,49.644-4.161,49.644-4.161l36.247-26.777Z" transform="translate(-390.034 -340.957)"/>
                <path id="Path_252" data-name="Path 252" class="cls-11" d="M603.388,428.4,569.4,435.1l-2.205.441S540.33,428.4,539.44,427.8s-25.28-33.459-25.28-33.459,12.332.133,22.018-5.45c.349-.2.691-.416,1.032-.624a21.469,21.469,0,0,0,9.153-11.225c.175-.491.325-1,.466-1.531a30.192,30.192,0,0,0-.283-14.629c-3.328-13.871,4.327-17.691,14.47-17.358,14.654.483,34.6,9.628,34.6,9.628a40.666,40.666,0,0,0,3.137,13.564c.158.4.333.832.516,1.215a38.727,38.727,0,0,0,18.049,18.931l1.073.533c1.082.516,2.222,1.007,3.4,1.448C647.706,398.662,603.388,428.4,603.388,428.4Z" transform="translate(-399.714 -278.645)"/>
                <path id="Path_253" data-name="Path 253" class="cls-7" d="M605.687,367.933a42.862,42.862,0,0,1-52.906,9.112c1.465-4.26,1.739-9.561.183-16.16-8.03-33.909,49.095-7.73,49.095-7.73A41.214,41.214,0,0,0,605.687,367.933Z" transform="translate(-398.609 -281.143)"/>
                <path id="Path_254" data-name="Path 254" class="cls-11" d="M612.086,328.014a42.538,42.538,0,0,1-6.49,22.659,41.929,41.929,0,0,1-4.751,6.249,42.588,42.588,0,0,1-29.008,13.813c-.832.058-1.722.083-2.588.083a42.829,42.829,0,1,1,42.829-42.829Z" transform="translate(-394.283 -271.346)"/>
                <path id="Path_255" data-name="Path 255" class="cls-7" d="M603.388,437.164l-33.984,6.7-2.205.441s-26.869-7.14-27.759-7.739-25.28-33.459-25.28-33.459,12.332.133,22.018-5.45c.349-.2.691-.416,1.032-.624A39.891,39.891,0,0,0,566.2,409.7a41.874,41.874,0,0,0,6.074-.441c4.776-.732,9.594-1.207,14.4-1.664,9.212-.965,23.3-3.761,30.7-11.9l1.073.533c1.082.516,2.222,1.007,3.4,1.448C647.706,407.425,603.388,437.164,603.388,437.164Z" transform="translate(-399.714 -287.408)"/>
                <path id="Path_256" data-name="Path 256" class="cls-12" d="M633.654,524.106c.291,6.549,5.059,80.307,5.059,80.307H490.289l1.007-46.44.832-37.146.266-12.19,1.19-42.23-4.3-3.794L465.9,442.01h0c.175-.549,6.515-19.347,5.633-21.993s11.308-13.38,15.477-13.98a54.191,54.191,0,0,0,6.973-2.122c7.015-2.5,16.376-6.091,17.408-5.525,1.456.782,16.052-.574,16.642-.632h0A39.81,39.81,0,0,0,558.04,411.6a40.771,40.771,0,0,0,6.049-.483c4.776-.732,9.594-1.207,14.4-1.706,9.678-1.007,24.722-4.044,31.77-13.147a45.032,45.032,0,0,1,9.944,2.13,59.03,59.03,0,0,0,14.579,2,73.988,73.988,0,0,1,11.3,4.161,79.051,79.051,0,0,0,10.709,4.161s6.84,1.781,8.629,19.03,3.595,27.069,3.595,27.069l-35.365,30.63S633.363,517.532,633.654,524.106Z" transform="translate(-391.612 -287.502)"/>
                <path id="Path_258" data-name="Path 258" class="cls-10" d="M665.174,654.029s27.659-2.08,38.968-14.87,39.85-19.63,39.85-19.63S812.7,611.5,785.6,672.177c0,0-1.781,6.84-5.351,8.92s-12.19,7.439-12.19,7.439l-105.537-9.22Z" transform="translate(-424.621 -324.927)"/>
                <path id="Path_259" data-name="Path 259" class="cls-7" d="M708.456,707.406a32.793,32.793,0,0,1-5.475,18.173c-17.757,1.573-57.083,5.267-65.313,7.564-10.11,2.8-30.572-2.08-32.81-2.63l-.208-.05s-3.944-11.966-5.825-19.621c-.832-3.478-1.273-6.066-.724-6.258,1.789-.591,18.148-5.059,17.849-2.5S665.045,682.9,665.045,682.9l1.514,19.039C671.577,707.68,708.456,699.143,708.456,707.406Z" transform="translate(-413.765 -335.625)"/>
                <path id="Path_260" data-name="Path 260" class="cls-10" d="M759.678,691.674l-2.08,7.739a61.653,61.653,0,0,1-16.642,13.081c-9.819,5.059-27.069,13.389-27.069,13.389s-63.349,5.35-74.058,8.321-33.018-2.679-33.018-2.679-8.321-25.28-6.54-25.879,18.14-5.051,17.849-2.5,49.095-19.189,49.095-19.189Z" transform="translate(-414.128 -335.803)"/>
                <path id="Path_261" data-name="Path 261" class="cls-11" d="M579.92,767.576s31.138,2.172,38.544,4.993,60.312-1.082,60.312-1.082,34.183.666,43.977,3.595,6.316-29.956-11.758-33.642-43.545,1.739-43.545,1.739-28.741-3.7-32.228-4.161-26.445.208-26.445.208Z" transform="translate(-410.754 -345.019)"/>
                <path id="Path_262" data-name="Path 262" class="cls-7" d="M432.87,674.72s41.156,3.7,52.473,10.451Z" transform="translate(-386.066 -334.251)"/>
                <path id="Path_263" data-name="Path 263" class="cls-7" d="M732.319,642.28s-32.228,7.839-44.859,19.372Z" transform="translate(-428.808 -328.805)"/>
                <path id="Path_264" data-name="Path 264" class="cls-7" d="M435.75,663.47c.657.216,18.947,2.613,18.506,4.352S435.75,663.47,435.75,663.47Z" transform="translate(-386.55 -332.363)"/>
                <path id="Path_265" data-name="Path 265" class="cls-7" d="M401.21,714.891l2.38,8.929s5.35,4.161,6.54,6.241,8.03,2.679,8.03,2.679,7.14,3.27,8.929,5.051,21.111,7.439,39.259,9.819,51.749,6.84,58.889,9.22a85.713,85.713,0,0,0,15.469,3.27s13.38,7.14,20.52,5.359,19.33-34.208,19.33-34.208-46.99-11-48.479-14.57-46.7-20.22-46.7-20.22l-26.769.632Z" transform="translate(-380.751 -337.901)"/>
                <path id="Path_266" data-name="Path 266" class="cls-10" d="M399.06,712.9l2.38,8.929s5.359,4.161,6.549,6.241,8.03,2.679,8.03,2.679,7.14,3.27,8.92,5.059,21.119,7.431,39.259,9.811,51.758,6.84,58.9,9.22a85.969,85.969,0,0,0,15.461,3.262s13.389,7.131,20.528,5.351,19.33-34.208,19.33-34.208-47-11-48.479-14.57-67.817-30.63-67.817-30.63l-20.8-4.76Z" transform="translate(-380.39 -335.017)"/>
                <path id="Path_268" data-name="Path 268" class="cls-7" d="M462.44,553.84c.657,1.09,20.686,3.328,21.993,6.882S462.44,553.84,462.44,553.84Z" transform="translate(-391.031 -313.957)"/>
                <path id="Path_269" data-name="Path 269" class="cls-7" d="M454.85,572.806s2.721-8.5,9.153-6.973S454.85,572.806,454.85,572.806Z" transform="translate(-389.756 -315.94)"/>
                <path id="Path_270" data-name="Path 270" class="cls-7" d="M450.67,587.042s4.785-11.325,11.317-10.451S450.67,587.042,450.67,587.042Z" transform="translate(-389.055 -317.769)"/>
                <path id="Path_271" data-name="Path 271" class="cls-11" d="M700.842,586.038l-2.089,12.482s-21.41,39.268-25.28,39.858-24.964-26.17-24.964-26.17l-5.65-26.178,22.242-4.219,9.877-9.761S699.943,574.438,700.842,586.038Z" transform="translate(-421.32 -317.015)"/>
                <path id="Path_272" data-name="Path 272" class="cls-12" d="M694.023,458.784l8.03,5.65v30.039s6.249-.6,4.76,2.679-4.46,5.051-1.781,8.03,2.08,8.621-.3,9.22-6.54,2.971-2.679,4.46,6.249,4.161,6.249,5.95.3,4.46-1.19,6.54-2.971,6.84-1.19,8.629-1.49,11-1.49,11,5.658,14.579.3,18.739c0,0-2.38,8.321-2.679,8.92,0,0,3.753-28.949-33.667-16.709,0,0-.691-11.034-.949-15.12s3.229-5.284,1.306-7.722-6.732-8.038-4.46-9.519,1.49-4.161.591-6.249-4.036-2.08-1.19-4.61,4.535-4.9,2.862-6.091-4.577-5.068-2.263-6.848,2.38-27.66,2.38-27.66S676.183,440.044,694.023,458.784Z" transform="translate(-424.621 -297.128)"/>
                <path id="Path_273" data-name="Path 273" class="cls-7" d="M695.84,521.052s11.433-3.1,11.808,0S695.84,521.052,695.84,521.052Z" transform="translate(-430.215 -308.221)"/>
                <path id="Path_274" data-name="Path 274" class="cls-7" d="M680.4,531.19s15.677-3.919,17.633-.874S680.4,531.19,680.4,531.19Z" transform="translate(-427.623 -309.813)"/>
                <path id="Path_275" data-name="Path 275" class="cls-7" d="M676.21,541.32s23.516-3.27,25.038,1.523S676.21,541.32,676.21,541.32Z" transform="translate(-426.92 -311.673)"/>
                <path id="Path_276" data-name="Path 276" class="cls-7" d="M680.4,553.84c.874.216,22.642,1.739,23.075,5.875S680.4,553.84,680.4,553.84Z" transform="translate(-427.623 -313.957)"/>
                <rect id="Rectangle_49" data-name="Rectangle 49" class="cls-2" width="186.46" height="105.903" rx="10.47" transform="translate(77.867 253.288)"/>
                <circle id="Ellipse_20" data-name="Ellipse 20" class="cls-1" cx="6.873" cy="6.873" r="6.873" transform="translate(164.223 299.371)"/>
                <path id="Path_284" data-name="Path 284" d="M570.034,334.2a30.2,30.2,0,0,1-.965,6.324c-1.448,5.434-3.864,8.329-3.356,13.513.4-4.527,2.149-6.323,3.356-10.858A30.073,30.073,0,0,0,570.034,334.2Z" transform="translate(-397.54 -282.908)"/>
                <path id="Path_286" data-name="Path 286" d="M579.847,384.148a.287.287,0,0,0-.058-.208c-.632,3.1-3.179,5.925-4.352,9.037a12.671,12.671,0,0,0-.732,5.825,11.965,11.965,0,0,1,.732-3.145C576.91,391.737,580.58,388.275,579.847,384.148Z" transform="translate(-409.866 -285.434)"/>
                <path id="Path_699" data-name="Path 699" d="M557.664,357.5c-.1,2.136,6.082,0,6.082,0S557.8,360.522,557.664,357.5Z" transform="translate(-389.543 -286.819)"/>
                <path id="Path_287" data-name="Path 287" class="cls-13" d="M12.607,32.228C12.241,22.184,4.835,13.921,1.215,4.577A18.952,18.952,0,0,1,.05,0,15.46,15.46,0,0,0,1.215,7.256c3.561,9.22,10.768,17.333,11.35,27.152C12.607,33.684,12.632,32.952,12.607,32.228Z" transform="matrix(0.875, 0.485, -0.485, 0.875, 111.553, 175.141)"/>
                <path id="Path_338" data-name="Path 338" class="cls-2" d="M-401.794-2593.762s4.081,10.486,4.275,15.618,1.166,5.5,1.166,5.5l5.83,9.764s2.272.368,3.3-.987a1.986,1.986,0,0,0,.243-2.4,74.512,74.512,0,0,1,16.134-6.372c2.464-.7,13.5-.4,13.7,0,.834,1.468-8.4,6.818-8.4,6.818v.139s-8.745,2.117-11.563,2.34-1.1-2.7-2.284-1.686a3.849,3.849,0,0,1-2.774.794,3.579,3.579,0,0,0,1.555,3.644c1,.748,3.873,1.064,5.072.967,1.377-.113,2.345.285,3.515-.967a9.128,9.128,0,0,1,3.891-2.285h10.116s3.436.924,4.766,2.285c1.435,1.469,1.451.218,3.149.521,3.128.558,6.228-.212,6.9-2.38s-3.348-3.813-3.348-3.813-.964,2.833-3.5,2.474c-2.675-.379-6.025-.538-8.162-1.488-1.2-.532-6.988-.763-7.336-1.983,0,0,6.035-5.443,8.4-5.38a24.036,24.036,0,0,1,11.66,3.347c4.523,2.551,5.971,0,5.971,0a10.235,10.235,0,0,0,.777,4.61c.678,1.381,2.314,2.5,3.789,1.34,1.789-1.408,2.383-3.135,3.789-5.5,1.182-1.989,3.263-4.46,3.4-8.479a46.387,46.387,0,0,1,4.178-16.436,71.442,71.442,0,0,1,2.721,7.958,21,21,0,0,1,.543,6.307,21.065,21.065,0,0,1,.817,6.856c-.156,4.087-1.492,9.275-3.5,8.776-.644-.16-1.854,1.165-2.332,1.413-1.1.553-.456,1.406-.486,3.793-.016,1.33,1.1,2.872,0,4.091-3.5,3.867-9.133,11.379-9.133,11.379l-2.833,1.859-2.414,3.124s-2.915,3.793-10.591,5.429c-3.984.849-6.988-.062-10.2,0-1.555-.3-4.858.149-9.716.446-8.258-1.445-9.9-2.633-13.8-5.256s-1.36-3.372-4.275-4.71-2.261-2.255-2.526-2.529c-10.591-10.933-8.259-12.048-8.259-12.048s.972-5.8-2.235-6.991-3.012-2.826-3.012-2.826-2.332-7.81,0-11.974c0,0-.1-3.124-.486-3.644S-401.794-2593.762-401.794-2593.762Z" transform="translate(536.985 2646.667)"/>
              </g>
            </g>
          </g>
        </g>
      </g>
    </g>
    <path id="Path_547" data-name="Path 547" class="cls-2" d="M1086.6,518.9c.7,1.174.894,2.7,1.752,3.679,1.542,1.594,4.047.771,6.185.806,4.976.088,8.62,5.361,9.812,10.512s.823,10.723,2.068,15.909a8.76,8.76,0,0,1,4.293-8.3,7.622,7.622,0,0,1,8.76,1.209c1.857,1.752,3.136,4.643,5.589,5.151s6.939-1.631,7.815-4.207a43.452,43.452,0,0,0,1.085-6.48,119.56,119.56,0,0,1,4.415-15.822,25.424,25.424,0,0,0-.157-18.116c-1.227-3.049-3.031-5.782-4.258-8.76a71.046,71.046,0,0,0-3.988-8.98c-3.776-7.359-9.2-11.4-17.059-8.821-3.5,1.332-9.9,3.874-13.479,5.03-4.8,1.542-10.4-4.33-15.356-5.03s-10.513-.753-14.437,2.505c-4.59,3.767-5.852,10.828-10.162,14.945-1.752,1.752-4.065,2.838-5.974,4.433a8.235,8.235,0,0,0-3.347,6.588c.3,3.364,3.5,6.413,2.365,9.531a7.392,7.392,0,0,1-1.752,2.365c-3.612,3.791-5.123,18.046-6.674,23.048,8.76,2.7,16.906-16.548,23.686-21.068C1072.232,516.057,1083.042,513.148,1086.6,518.9Z" transform="translate(-121.43 139.045)"/>
  </g>
</svg>
